<?xml version="1.0" encoding="utf-8"?>
<!-- Generator: Adobe Illustrator 28.4.1, SVG Export Plug-In . SVG Version: 6.00 Build 0)  -->
<svg version="1.1" id="Слой_1" xmlns="http://www.w3.org/2000/svg" xmlns:xlink="http://www.w3.org/1999/xlink" x="0px" y="0px"
	 viewBox="0 0 395.5 138.3" style="enable-background:new 0 0 395.5 138.3;" xml:space="preserve">
<style type="text/css">
	.st0{fill:#00A2CE;}
	.st1{fill:#2B2B2B;}
</style>
<g>
	<path class="st0" d="M42.9,0C49,2.1,54.3,5.8,60.2,8.4c15.8,8.4,31.9,16.2,47.6,24.7c0.2,0.7,0.5,2.1,0.7,2.7
		c-21.2-11-42.7-21.6-64.1-32.4c-15,31-29.1,62.4-44.2,93.4C0,94.5-0.3,92.1,0.7,90c7.5-16.3,15.2-32.5,22.7-48.8
		C30,27.5,35.9,13.5,42.9,0"/>
	<path class="st0" d="M45,7.8c3.2,0.6,6.1,2.4,8.9,3.8c17.9,8.7,35.7,17.6,53.7,26.2c2.4,1,3.7,3.2,4.9,5.3
		c-4.6-1.4-8.8-3.7-13.1-5.8c-17.6-8.4-35.2-16.8-52.8-25.2c-14,28.9-27.9,58-41.9,86.9c-1.3,2.5-2.5,5.1-3.3,7.9
		c-0.4-2.5-1.2-5.2,0.1-7.6C15.9,68.9,30.8,38.5,45,7.8"/>
	<path class="st0" d="M29.2,54.4c6.3-12.6,12-25.5,18.7-37.8c22,10.5,44.4,20.3,66.3,30.9c0.5,1.4,1,2.7,1.5,4.1
		c-22.2-10-44.4-20-66.7-29.8C33,53.5,17.8,85.7,1.6,117.3c-0.2-2.5-0.8-5.3,0.6-7.6C11.2,91.3,20.2,72.9,29.2,54.4"/>
	<path class="st0" d="M3.5,119.6c15.6-31,30.9-62.2,46.7-93.2c21.6,9.2,43.1,18.6,64.7,27.8c2.5,0.7,3.4,3.1,4.3,5.3
		c-4.5-1.3-8.8-3.3-13.1-5.1c-15.3-6.3-30.5-12.6-45.8-19c-3-1.3-6-2.8-9.3-3c-16.2,32-32.3,64-48.7,95.9
		C2.1,125.4,1.8,122.2,3.5,119.6"/>
	<path class="st0" d="M52.7,36.9c22,8.4,43.8,17.3,65.7,25.9c2.8,0.7,3.9,3.4,4.6,5.8c-20.4-7.6-40.7-15.4-61-23
		c-2.6-1.1-5.3-2.2-8.2-2.1c-15.6,30.1-31.4,60.1-47,90.2c13.1,0.4,26.2,1.1,39.2,1.2c7.9,0.8,15.9,0.9,23.9,1
		c2.4,0,4.8,0.6,7.1,1.3c-2.4,0.5-4.8,1.1-7.3,1.2c-11.5-0.6-23-0.6-34.5-0.9c-10.8-0.9-21.6-0.6-32.3-1.1c0.1-3.2,1.6-6.1,3.2-8.8
		C21.6,97.3,37.1,67.1,52.7,36.9"/>
	<path class="st0" d="M12.5,129.4c14.1-27.3,28.7-54.3,43.1-81.5c23.2,8.4,46.6,16.5,69.7,25.3c0.5,1.5,1.1,3.1,1.6,4.6
		C103.6,70,80.5,61.9,57.1,54.2C44.5,77.7,31.7,101,19.3,124.6c23.8,1.6,47.6,3.2,71.4,4.9c-2.3,1.2-4.6,2.4-6.8,3.7
		c-15.5-0.6-31-1.8-46.5-2.3C29.2,129.9,20.8,130.5,12.5,129.4"/>
	<path class="st0" d="M50.4,74.7c2.8-4.9,5.3-10,8.3-14.8c20.7,6.5,41.3,13.2,62,19.7c3,0.9,5.9,1.9,8.7,3.1
		c0.6,1.6,1.2,3.1,1.9,4.7c-23.7-6.6-47.1-14-70.8-20.8c-1.8,1.9-2.7,4.4-4,6.6c-7.6,13.6-15.1,27.2-22.8,40.8
		c24.2,2.9,48.4,5.1,72.6,7.9c-3.4,1.6-6.7,4.4-10.7,3.9c-23.3-1.9-46.5-4.1-69.8-5.8C33.7,104.7,42.4,89.9,50.4,74.7"/>
	<path class="st0" d="M41.8,108.4c6.5-12,13.3-23.8,20.1-35.6c23.9,6.6,48,12.9,71.8,19.8c0.6,1.7,1.2,3.4,1.8,5.2
		c-24-5.7-47.9-12.3-71.9-17.7c-4,7.3-8.6,14.2-12.2,21.7c18.1,2.9,36.1,5.7,54.2,8.7c2.9,0.5,5.9,0.7,8.9,0.7c-1,0.1-2,0.2-2.9,0.4
		c4.2,0.5,8.4,1.3,12.6,1.8c-4.2,2-8.4,5.3-13.4,4.1C87.8,114.5,64.7,111.7,41.8,108.4"/>
	<path class="st0" d="M65.3,86.8c20.3,4.3,40.6,9.1,60.8,13.6c4,1.1,8.2,1.5,12.2,3c0.2,0.7,0.6,2.1,0.7,2.9
		c-2.3,1.3-4.7,2.8-7.4,2.3c-23.5-4.4-47-9.2-70.5-13.3C61.8,92.1,63.6,89.4,65.3,86.8"/>
	<path class="st1" d="M152.8,52.7c5.9,0,11.8,0,17.7,0c0,2.1,0,4.2,0,6.2c-1.5,0.1-3,0.2-4.6,0.4c4.3,13.1,8.3,26.4,12.6,39.6
		c0.8-1.1,1.3-2.3,1.6-3.6c4-14.2,8.3-28.3,12.2-42.5c3.7,0,7.4,0,11,0c4.3,14.3,8.8,28.5,13.1,42.8c0.3,1.3,0.9,2.5,1.7,3.5
		c4.2-13.3,8.5-26.5,12.8-39.8c-1.7-0.1-3.4-0.2-5.1-0.2c0.1-2.1,0-4.2,0-6.2c5.9,0,11.8,0,17.7,0c-0.1,2.1-0.1,4.2-0.1,6.3
		c-1.5,0-3.1,0-4.6,0c-5.2,16-10.3,32-15.5,48.1c-3.7,0-7.3,0-11,0c-4.6-14.3-9-28.7-13.4-43c-0.4-1-0.8-1.9-1.4-2.8
		c-4.4,15.2-8.8,30.5-13.1,45.8c-3.6,0.1-7.3,0.1-11,0.1c-5-14.8-9.8-29.8-14.7-44.6c-0.5-1.1-0.6-2.7-1.7-3.4
		c-1.4-0.1-2.7-0.1-4.1,0C152.9,56.9,152.8,54.8,152.8,52.7"/>
	<path class="st1" d="M265.5,52.7c3.6,0,7.2,0,10.8,0c5.6,15.9,11.2,31.8,16.7,47.8c1.9,0,3.7,0,5.6,0c-0.1,2,0,4.1-0.2,6.2
		c-5.8,1-11.8,0.1-17.7,0.4c0-2.2,0-4.4-0.1-6.6c1.1,0,3.2-0.1,4.3-0.1c-1.2-4-2.7-7.8-4-11.7c-6.9,0-13.7,0-20.6,0
		c-1.3,3.9-2.7,7.8-3.8,11.7c1.8,0,3.6,0,5.4,0c-0.1,2.2-0.1,4.4-0.3,6.6c-5.8-0.1-11.6,0-17.4,0c0-2.2-0.1-4.4-0.1-6.6
		c1.5,0,3.1,0,4.6,0C254.3,84.5,260,68.6,265.5,52.7 M270.7,59.1c-2.9,7.6-5.4,15.3-8,23c5.3,0,10.7,0,16,0
		C276.1,74.4,273.4,66.7,270.7,59.1"/>
	<path class="st1" d="M298.2,59c0-2.1,0-4.2,0-6.3c5.9,0,11.8,0,17.7,0c0,2.1-0.1,4.3-0.1,6.4c-1.1,0-3.2-0.1-4.2-0.2
		c3.9,13.8,9,27.2,13.3,40.9c5.1-13.4,9.6-27.1,14.7-40.5c-1.6-0.2-3.3-0.3-4.9-0.4c0-2.1,0-4.2,0-6.2c5.9,0,11.7,0.1,17.6,0
		c0,2.1-0.1,4.3-0.1,6.4c-1.5,0-2.9-0.1-4.4-0.1c-6,16-11.8,32-17.7,48.1c-3.3,0-6.6,0-9.9,0c-5.9-16-11.5-32.1-17.4-48.1
		C301.3,59,299.8,59,298.2,59"/>
	<path class="st1" d="M356.5,52.7c13-0.1,26,0,39-0.1c-0.1,5.2,0,10.4-0.1,15.5H388c-0.4-3,0.8-6.6-0.7-9.1
		c-6.2-0.1-12.4-0.3-18.6,0.2c0.2,5.6,0.1,11.2,0.1,16.7c5.4,0.2,10.9,0.1,16.3,0.1c0,2.1,0,4.2,0,6.3c-5.4,0-10.8,0-16.1,0
		c-0.3,6,0,12-0.1,18c6.4,0,12.8,0,19.2,0c0-3,0-6-0.1-9c2.5,0,5.1,0.1,7.7,0c-0.1,5.2,0.1,10.4-0.1,15.7c-12.9,0-25.8,0-38.7,0
		c-0.1-2.2-0.1-4.4-0.2-6.6c1.7,0,3.5,0,5.2,0c0-13.8,0-27.5,0-41.3c-1.7-0.1-3.5-0.1-5.2-0.2C356.6,56.9,356.6,54.8,356.5,52.7"/>
</g>
</svg>
